<svg data-name="Layer 1" xmlns="http://www.w3.org/2000/svg" viewBox="0 0 132.07 42.71">
  <path d="M0 12.57h5.64V3.71h7.42v8.86h8.22v6.77h-8.22V36.1h8.22v6.12h-9.51c-3.39 0-6.13-2.58-6.13-5.96V19.34H0v-6.77zm50.15 10.8c0-6.77-5.32-11.12-12.9-11.12s-12.74 4.51-13.06 10.48h6.45c.16-2.74 2.42-5.16 6.29-5.16s5.97 2.1 5.97 5c0 1.13-.64 1.93-2.1 1.93h-5.48c-6.77 0-11.13 3.71-11.13 9.35 0 5.16 4.03 8.86 9.84 8.86 4.19 0 7.74-1.93 8.87-4.83v4.35h7.26V23.37zm-13.87 5.48h6.61c0 5-2.58 8.22-7.1 8.22-2.9 0-4.52-1.61-4.52-4.03s1.93-4.19 5-4.19zM54.99 0v7.9h7.74V0h-7.74zm.32 12.57v29.66h7.26V12.57h-7.26zM68.05 0v42.23h7.26V0h-7.26zm26.61 12.25c-9.03 0-15.64 6.45-15.64 15.31s6.61 15.15 15.64 15.15 15.48-6.45 15.48-15.15-6.61-15.31-15.48-15.31zm0 24.34c-5 0-8.39-3.87-8.39-9.03s3.39-9.03 8.39-9.03 8.22 3.55 8.22 9.03-3.39 9.03-8.22 9.03zm37.41-24.02v6.12h-4.51c-4.68 0-6.45 4.03-6.45 9.51v14.02h-7.26V12.57h7.26v5.32c1.45-3.87 3.87-5.32 7.58-5.32h3.39z" fill="#0b0b0b" stroke-width="0"/>
</svg>